<svg version="1.2" xmlns="http://www.w3.org/2000/svg" viewBox="0 0 1604 258" width="1604" height="258">
	<title>knorr-bremse-svg</title>
	<style>
		.s0 { fill: #004481 } 
		.s1 { fill: #ffffff } 
	</style>
	<path id="Layer" fill-rule="evenodd" class="s0" d="m514.4 193.6l-18.9-44.7-6.9 10.7v34h-32.4v-128.7h32.4v49.5h0.3l23.9-49.5h34.5l-31 56.4 35 72.3zm91.9 0l-21.5-79.2h-0.5v79.8h-30.1v-129.6h36.2l20.7 79.6h0.5v-79.3h30.3v128.7zm91.3-131.1c33 0 44.4 18.4 44.4 66.8 0 48.4-11.4 67-44.4 67-32.9 0-44.3-18.9-44.3-67 0-48.2 11.4-66.8 44.3-66.8zm0 110.9c9.9 0 10.9-9.6 10.9-44.1 0-34.6-1.6-44.2-11.1-44.2-9.6 0-10.7 9.6-10.7 44.2 0 34.8 1.1 44.1 10.9 44.1zm56.6-108.5h50.5c24.7 0 33.9 14.4 33.9 34.3 0 17.3-6.3 28.5-21.2 30.6v0.5c15.7 1.4 20.4 11.7 20.4 28.8v11.1c0 6.7 0 15.2 1.4 17.8q0.3 0.7 0.7 1.3 0.3 0.5 0.8 1 0.5 0.5 1 1 0.6 0.4 1.2 0.7v1.6h-34.5c-3.2-6.6-3.2-19.1-3.2-24.4v-8.5c0-14.7-2.7-18.4-10.6-18.4h-8.5v51.3h-32.7zm31.9 54.6h6.6c9 0 13.6-6.2 13.6-15.5 0-10.3-4-14.9-13.9-14.9h-6.3zm67.7-54.5h50.4c24.7 0 34.3 14.4 34.3 34.3 0 17.3-6.6 28.5-21.2 30.6v0.5c15.4 1.4 20.1 11.7 20.1 28.8v11.1c0 6.7 0 15.2 1.6 17.9q0.3 0.6 0.7 1.2 0.4 0.5 0.9 1.1 0.4 0.5 1 0.9 0.5 0.4 1.2 0.7v1.6h-34.6c-3.2-6.6-3.2-19.1-3.2-24.4v-8.5c0-14.7-2.6-18.4-10.6-18.4h-8.5v51.3h-32.4zm32.2 54.6h6.6c9 0 13.3-6.1 13.3-15.5 0-10.3-4-14.9-13.8-14.9h-6.1zm64.2 8.3h54.2v27.7h-54.2zm67.7-62.5h48.9c23.4 0 34 12.5 34 31.9 0 13.8-5.8 26-19.4 28.7v0.5c16.2 1.6 22.8 16 22.8 29.3 0 22.3-10.3 38-37.4 38h-48.9zm32.4 50.3h8c6.4 0 10.1-5.9 10.1-13 0-7.2-3.7-13.3-10.1-13.3h-8zm0 54.2h9.1c6.1 0 11.4-5.3 11.4-15.9 0-10.1-5.6-15.5-11.4-15.5h-9.1zm66.7-104.8h50.5c24.6 0 33.9 14.4 33.9 34.3 0 17.3-6.3 28.5-21.2 30.6v0.6c15.7 1.3 20.4 11.7 20.4 28.7v11.2c0 6.6 0 15.1 1.6 17.8q0.3 0.6 0.7 1.2 0.4 0.6 0.9 1.1 0.5 0.5 1 0.9 0.5 0.4 1.2 0.8v1.6h-34.6c-3.2-6.7-3.2-19.2-3.2-24.5v-8.5c0-14.6-2.6-18.4-10.6-18.4h-8.5v51.4h-32.4zm31.9 54.5h6.6c9.1 0 13.6-6.1 13.6-15.4 0-10.4-4-14.9-13.8-14.9h-6.1z"/>
	<path id="Layer" fill-rule="evenodd" class="s0" d="m1291.4 193.6v-27.4h-42.5v-25.2h38.5v-26.6h-38.7v-22.1h41.1v-27.4h-73.3v128.7zm10.7 0h30.2v-95.7h0.3l17.3 95.7h23.3l17.3-95.7h0.3v95.7h30.2v-128.7h-46.2l-13.2 76.3-13.3-76.3h-46.2zm211.6-91.5c0-27.7-11.9-39.9-40.1-39.9-27.3 0-40.6 14.4-40.6 40.4 0 45.5 50.4 33 50.4 58.5 0 7-3.7 12.6-10 12.6-6.4 0-10.7-4-10.7-14.9v-3.2h-31.6v4.5c0 26.6 15.2 36.2 42 36.2 28.4 0 43.8-12.3 43.8-39.9 0-46.9-52.8-34.6-52.8-59.9 0-5.8 3.1-11.4 10.1-11.4 6.3 0 9.2 6.4 9.2 13.8v3.2zm14.7 91.5h75.1v-27.4h-42.7v-25.3h38.5v-26.6h-38.5v-22h41.1v-27.4h-73.5zm-1528.4 63.8h363.9v-257.5h-363.9z"/>
	<path id="Layer" fill-rule="evenodd" class="s1" d="m181.9 214.4c-45.7 0-82.6-38.4-82.6-85.8 0-47.4 36.9-85.8 82.6-85.8 45.7 0 82.6 38.4 82.6 85.8 0 47.4-36.9 85.8-82.6 85.8zm62.4-85.7c0-36-28.1-65.1-62.8-65.1-34.7 0-62.8 29.1-62.8 65.1 0 36.1 28.1 65.2 62.8 65.2 34.7 0 62.8-29.1 62.8-65.2z"/>
	<path id="Layer" fill-rule="evenodd" class="s1" d="m280.4 80.6c3.4 7.5 6 15.4 7.8 23.5 1.7 8.1 2.6 16.4 2.6 24.6 0 8.3-0.9 16.6-2.6 24.7-1.8 8-4.4 15.9-7.8 23.5h-22.5c4.2-7.3 7.4-15.1 9.6-23.2 2.2-8.2 3.3-16.5 3.3-25 0-8.4-1.1-16.8-3.3-24.9-2.2-8.1-5.4-15.9-9.6-23.2zm-175.3 0c-4.2 7.3-7.4 15-9.6 23.1-2.2 8.2-3.3 16.5-3.3 24.9 0 8.4 1.1 16.8 3.3 24.9 2.2 8.1 5.4 15.8 9.6 23.1h-22.3c-3.4-7.5-6-15.4-7.7-23.4-1.7-8.1-2.6-16.3-2.6-24.6 0-8.3 0.9-16.5 2.6-24.5 1.7-8.1 4.3-16 7.7-23.5zm39.3 0h26.5v96h-26.5zm49.1 96l-22.3-47.8 22.3-47.9h26.6l-22.6 47.9 22.6 47.8z"/>
	<path id="Layer" fill-rule="evenodd" class="s1" d="m65.9 128.7q-0.1-6.1 0.5-12.2 0.6-6.2 1.9-12.2 1.2-6 3-11.9 1.7-5.9 4.1-11.5h-19.6l-22.3 47.8 22.3 47.9h19.9q-2.4-5.7-4.2-11.5-1.8-5.9-3-11.9-1.2-6.1-1.8-12.2-0.6-6.1-0.6-12.3m231 12.3q-0.6 6.1-1.8 12.2-1.2 6-3 11.9-1.8 5.8-4.2 11.5h20l22.3-47.9-22.3-47.8h-20q2.4 5.6 4.2 11.5 1.8 5.9 3 11.9 1.2 6 1.8 12.2 0.6 6.1 0.6 12.2 0 6.2-0.6 12.3z"/>
</svg>